<?xml version="1.0" encoding="utf-8"?>
<!-- Generator: Adobe Illustrator 16.0.4, SVG Export Plug-In . SVG Version: 6.00 Build 0)  -->
<!DOCTYPE svg PUBLIC "-//W3C//DTD SVG 1.0//EN" "http://www.w3.org/TR/2001/REC-SVG-20010904/DTD/svg10.dtd">
<svg version="1.0" id="Layer_1" xmlns="http://www.w3.org/2000/svg" xmlns:xlink="http://www.w3.org/1999/xlink" x="0px" y="0px"
	 width="841.889px" height="595.281px" viewBox="0 0 841.889 595.281" enable-background="new 0 0 841.889 595.281"
	 xml:space="preserve">
<g>
	<g>
		<g>
			<path fill="#E9D917" d="M140.945,344.082h-31.051v43.202H71.553V273.609h38.071v38.611h31.051v-38.611h38.341v113.675h-38.071
				V344.082z"/>
		</g>
		<g>
			<path fill="#E9D917" d="M200.617,387.284V273.609h42.391c8.911,0,17.551,0.811,25.651,2.7c8.101,1.891,15.391,4.86,21.601,9.181
				s11.341,9.99,15.121,17.28c3.779,7.291,5.67,16.201,5.67,27.271c0,9.99-1.891,18.631-5.4,25.921s-8.37,13.23-14.311,17.82
				s-12.96,8.101-20.791,10.261c-7.83,2.16-15.93,3.24-24.301,3.24H200.617z M237.338,306.01v48.332h7.021
				c8.91,0,15.931-1.891,20.791-5.94c4.859-3.78,7.29-10.26,7.29-19.171c0-7.29-2.431-13.23-7.29-17.28
				c-4.86-4.05-11.341-6.21-19.171-6.21h-8.641V306.01z"/>
		</g>
		<g>
			<path fill="#D3D3D3" d="M387.734,367.573L387.734,367.573l38.341-94.233h17.551v113.944h-11.61V288.46h-0.27l-41.042,98.824
				h-6.21l-41.041-98.824h-0.271v98.824h-11.61V273.609h17.551L387.734,367.573z"/>
		</g>
		<g>
			<path fill="#D3D3D3" d="M547.849,349.753c0,5.67-1.08,10.8-2.97,15.66c-1.891,4.86-4.86,8.91-8.37,12.42
				c-3.511,3.511-7.831,6.211-12.69,8.371c-4.86,1.89-10.261,2.97-16.201,2.97c-5.67,0-11.07-1.08-15.931-2.97
				c-4.86-1.891-9.18-4.86-12.69-8.371c-3.51-3.51-6.21-7.83-8.37-12.42c-1.89-4.86-2.97-9.99-2.97-15.66
				c0-5.671,1.08-10.801,2.97-15.661s4.86-8.91,8.37-12.42c3.511-3.511,7.83-6.211,12.69-8.371c4.86-1.89,10.261-2.97,15.931-2.97
				c5.94,0,11.341,1.08,16.201,2.97c4.859,1.891,9.18,4.86,12.69,8.371c3.51,3.51,6.21,7.83,8.37,12.42
				S547.849,344.082,547.849,349.753z M536.239,349.753c0-4.051-0.54-8.101-1.89-11.881c-1.351-3.78-3.24-7.021-5.671-9.721
				c-2.43-2.7-5.399-4.859-8.91-6.479c-3.51-1.62-7.56-2.431-11.88-2.431s-8.37,0.811-11.881,2.431
				c-3.51,1.62-6.479,3.779-8.91,6.479c-2.43,2.7-4.32,5.94-5.67,9.721c-1.351,3.78-1.891,7.561-1.891,11.881
				c0,4.05,0.54,8.1,1.891,11.88c1.35,3.78,3.24,7.021,5.67,9.721s5.4,4.86,8.91,6.479c3.511,1.62,7.29,2.431,11.881,2.431
				c4.32,0,8.37-0.811,11.88-2.431c3.511-1.619,6.48-3.779,8.91-6.479c2.431-2.7,4.32-5.94,5.671-9.721
				C535.698,357.852,536.239,353.802,536.239,349.753z"/>
		</g>
		<g>
			<path fill="#D3D3D3" d="M602.121,387.284h-12.15L559.19,312.22h12.15l24.301,63.723h0.27l24.571-63.723h11.61L602.121,387.284z"
				/>
		</g>
		<g>
			<path fill="#D3D3D3" d="M663.143,283.059c0,2.16-0.81,4.051-2.43,5.671c-1.62,1.35-3.24,2.16-5.4,2.16
				c-1.89,0-3.78-0.811-5.4-2.16c-1.62-1.351-2.43-3.24-2.43-5.671c0-2.16,0.81-4.05,2.43-5.67c1.62-1.35,3.24-2.16,5.4-2.16
				c1.891,0,3.78,0.811,5.4,2.16C662.333,279.01,663.143,280.899,663.143,283.059z M660.713,387.284h-10.801v-75.333h10.801V387.284
				z"/>
		</g>
		<g>
			<path fill="#D3D3D3" d="M758.187,347.322c0,0.811,0,1.62,0,2.431c0,0.81,0,1.89-0.271,2.699h-62.372
				c0,3.78,0.81,7.291,2.16,10.531c1.35,3.239,3.24,6.21,5.67,8.64c2.431,2.431,5.4,4.32,8.641,5.94c3.24,1.35,7.021,2.16,10.8,2.16
				c5.671,0,10.531-1.351,14.581-4.05c4.05-2.7,7.29-5.671,9.45-9.181l8.101,6.48c-4.591,5.67-9.45,9.72-14.851,12.15
				c-5.4,2.43-11.341,3.78-17.551,3.78c-5.67,0-10.801-1.08-15.391-2.971c-4.86-1.89-8.91-4.86-12.42-8.37
				c-3.511-3.51-6.211-7.83-8.101-12.421c-1.891-4.859-2.971-9.99-2.971-15.66s1.08-10.801,2.971-15.66
				c1.89-4.86,4.59-8.911,8.101-12.421c3.51-3.51,7.56-6.21,12.15-8.37c4.59-1.891,9.45-2.97,14.85-2.97
				c5.94,0,11.071,1.079,15.661,2.97c4.59,1.89,8.37,4.59,11.34,8.101c2.971,3.51,5.4,7.29,6.751,11.88
				C757.647,337.332,758.187,342.192,758.187,347.322z M747.116,343.812c-0.271-7.021-2.7-12.961-6.751-17.551
				c-4.319-4.59-10.26-7.021-18.09-7.021c-3.511,0-7.021,0.54-9.991,1.891c-3.239,1.35-5.939,3.239-8.1,5.399
				c-2.431,2.431-4.32,4.86-5.671,7.831c-1.35,2.97-2.159,5.939-2.43,9.18h51.032V343.812z"/>
		</g>
		<g>
			<path fill="#D3D3D3" d="M821.639,329.771c-1.62-2.97-4.051-5.67-7.291-7.56c-3.239-1.891-7.02-2.971-11.07-2.971
				c-1.89,0-3.779,0.271-5.67,0.54c-1.89,0.271-3.51,1.08-5.13,2.16s-2.7,2.16-3.511,3.78c-0.81,1.62-1.35,3.24-1.35,5.4
				c0,3.51,1.35,6.21,4.32,8.1c2.97,1.891,7.561,3.511,13.771,4.86c8.91,1.891,15.391,4.591,19.711,7.83
				c4.319,3.511,6.21,8.101,6.21,14.041c0,4.32-0.811,7.83-2.431,10.801c-1.62,2.97-3.779,5.399-6.479,7.29
				c-2.7,1.89-5.671,3.24-9.181,4.05c-3.24,0.811-6.75,1.08-10.261,1.08c-5.67,0-11.07-1.08-16.47-3.51
				c-5.4-2.431-9.721-5.94-13.23-11.07l8.64-6.48c1.891,3.24,4.86,6.21,8.641,8.37s7.83,3.24,12.421,3.24
				c2.43,0,4.59-0.271,6.75-0.54c2.16-0.54,4.05-1.08,5.67-2.16s2.97-2.43,3.78-4.05c1.08-1.62,1.35-3.78,1.35-6.211
				c0-4.05-1.89-7.02-5.67-8.91c-3.78-1.89-9.18-3.78-16.471-5.67c-2.16-0.54-4.59-1.08-7.02-1.891
				c-2.431-0.81-4.86-1.89-7.021-3.51s-3.78-3.51-5.4-5.94c-1.351-2.43-2.16-5.399-2.16-8.91c0-3.78,0.81-7.021,2.16-9.99
				c1.62-2.7,3.51-4.86,5.94-6.75c2.43-1.891,5.4-2.971,8.64-4.051c3.24-0.81,6.48-1.35,9.991-1.35c5.13,0,10.26,1.08,15.391,3.51
				c4.859,2.431,8.64,5.671,11.07,9.99L821.639,329.771z"/>
		</g>
		<g>
			
				<image overflow="visible" enable-background="new    " width="471" height="479" xlink:href="A5012F0034212A61.png"  transform="matrix(0.6425 0 0 0.644 -25.5349 176.324)">
			</image>
		</g>
		<g>
			
				<image overflow="visible" enable-background="new    " width="475" height="479" xlink:href="A5012F0034212A63.png"  transform="matrix(0.6426 0 0 0.644 103.2795 176.322)">
			</image>
		</g>
	</g>
	<g>
		<g>
			<path fill="#50B961" d="M292.42,189.366h-14.04v28.892c0,1.89,0.27,3.24,0.54,4.59c0.27,1.08,0.81,2.16,1.62,2.7
				c0.54,0.54,1.35,1.08,2.43,1.35c0.81,0.271,1.89,0.271,2.97,0.271s2.16-0.271,3.24-0.54c1.08-0.271,2.16-0.54,3.24-1.08
				l0.271,6.21c-1.351,0.54-2.7,0.811-4.051,1.08c-1.35,0.271-2.97,0.271-4.59,0.271c-1.351,0-2.7-0.271-4.32-0.54
				c-1.62-0.271-2.97-1.08-4.05-1.891c-1.351-1.08-2.431-2.43-3.24-4.05c-0.811-1.62-1.351-4.05-1.351-6.75v-30.512h-10.26v-5.939
				h10.26v-14.041h7.291v14.041h14.04V189.366L292.42,189.366z"/>
		</g>
		<g>
			<path fill="#50B961" d="M335.082,200.707c0-4.32-1.08-7.561-3.511-9.45c-2.43-1.891-5.67-3.24-9.99-3.24
				c-2.97,0-5.67,0.54-8.37,1.62c-2.431,1.08-4.59,2.43-6.48,4.32l-4.05-4.86c2.16-2.16,4.86-3.78,8.1-5.13
				c3.24-1.351,7.021-1.891,11.341-1.891c2.7,0,5.13,0.271,7.561,1.08c2.43,0.811,4.32,1.891,6.21,3.24s3.24,3.24,4.05,5.67
				c1.08,2.16,1.62,4.86,1.62,7.83v21.602c0,1.89,0,3.78,0.271,5.939c0.27,2.16,0.27,3.78,0.54,5.131h-6.48
				c-0.271-1.08-0.271-2.431-0.54-4.051c-0.27-1.35-0.27-2.699-0.27-4.05h-0.271c-2.16,3.24-4.86,5.67-7.561,7.021
				c-2.97,1.35-6.21,2.16-10.26,2.16c-1.891,0-3.78-0.271-5.94-0.811c-1.891-0.54-3.78-1.35-5.4-2.7c-1.62-1.08-2.97-2.7-4.05-4.59
				s-1.62-4.32-1.62-7.021c0-3.78,1.08-6.75,2.97-9.18c1.891-2.16,4.591-3.78,7.83-5.131c3.24-1.08,7.021-1.89,11.071-2.16
				c4.319-0.27,8.64-0.54,12.96-0.54v-0.81H335.082z M332.922,207.997c-2.971,0-5.94,0-8.911,0.271c-2.97,0.27-5.67,0.81-8.1,1.35
				c-2.431,0.54-4.32,1.891-5.94,3.24s-2.43,3.24-2.43,5.67c0,1.891,0.27,3.24,1.08,4.32c0.539,1.08,1.619,2.16,2.699,2.971
				c1.08,0.81,2.431,1.35,3.78,1.619c1.351,0.271,2.7,0.54,4.32,0.54c2.431,0,4.86-0.54,6.75-1.35c1.891-0.81,3.511-2.16,4.86-3.51
				c1.351-1.62,2.431-3.24,2.971-5.131c0.81-1.89,1.08-4.05,1.08-6.21v-3.78H332.922z"/>
		</g>
		<g>
			<path fill="#50B961" d="M362.893,242.828c1.89,2.431,4.59,4.591,8.101,6.48c3.51,1.891,7.02,2.7,10.8,2.7
				c3.511,0,6.48-0.54,8.91-1.62c2.431-1.08,4.591-2.43,5.94-4.32c1.62-1.89,2.7-3.78,3.24-6.21c0.81-2.43,1.08-4.86,1.08-7.561
				v-9.45h-0.271c-1.89,3.24-4.59,5.4-8.1,7.29c-3.511,1.62-7.021,2.431-10.53,2.431c-3.78,0-7.291-0.54-10.53-1.891
				c-3.24-1.35-5.94-2.97-8.101-5.13s-4.05-4.86-5.13-8.101c-1.351-3.24-1.891-6.479-1.891-9.99c0-3.51,0.54-6.75,1.891-9.99
				c1.35-3.24,2.97-5.94,5.13-8.101c2.16-2.43,4.86-4.05,8.101-5.399c3.239-1.351,6.75-1.891,10.53-1.891
				c3.51,0,7.02,0.811,10.53,2.431c3.51,1.62,6.21,4.05,8.1,7.29h0.271v-8.641h7.29v49.142c0,2.7-0.271,5.671-1.08,8.641
				s-2.16,5.94-4.05,8.37c-1.891,2.431-4.86,4.59-8.101,6.48c-3.51,1.62-7.83,2.43-13.5,2.43c-4.591,0-8.91-0.81-13.23-2.7
				c-4.051-1.89-7.83-4.319-10.801-7.29L362.893,242.828z M364.242,207.457c0,2.7,0.54,5.131,1.351,7.29
				c0.81,2.431,2.16,4.32,3.78,6.211c1.62,1.89,3.51,3.24,5.939,4.32c2.431,1.079,4.86,1.619,7.831,1.619
				c2.7,0,5.399-0.54,7.56-1.35c2.431-0.81,4.32-2.16,5.94-4.05c1.62-1.62,2.97-3.78,4.05-6.211c1.08-2.43,1.351-5.13,1.351-7.83
				s-0.54-5.13-1.351-7.29c-1.08-2.43-2.16-4.32-4.05-6.21c-1.62-1.891-3.78-3.24-5.94-4.32c-2.43-1.08-4.859-1.62-7.56-1.62
				c-2.971,0-5.671,0.54-7.831,1.62c-2.43,1.08-4.319,2.43-5.939,4.32c-1.62,1.89-2.7,3.78-3.78,6.21
				C364.782,202.327,364.242,204.757,364.242,207.457z"/>
		</g>
		<g>
			<path fill="#50B961" d="M458.746,200.707c0-4.32-1.08-7.561-3.511-9.45c-2.16-2.16-5.67-3.24-9.99-3.24
				c-2.97,0-5.67,0.54-8.37,1.62c-2.43,1.08-4.59,2.43-6.48,4.32l-4.05-4.86c2.16-2.16,4.86-3.78,8.101-5.13
				c3.239-1.351,7.02-1.891,11.34-1.891c2.7,0,5.13,0.271,7.561,1.08c2.43,0.811,4.32,1.891,6.21,3.24s3.24,3.24,4.05,5.67
				c1.08,2.16,1.62,4.86,1.62,7.83v21.602c0,1.89,0,3.78,0.271,5.939c0.27,2.16,0.27,3.78,0.54,5.131h-6.48
				c-0.27-1.08-0.27-2.431-0.54-4.051c-0.27-1.35-0.27-2.699-0.27-4.05h-0.271c-2.16,3.24-4.86,5.67-7.561,7.021
				c-2.97,1.35-6.21,2.16-10.26,2.16c-1.891,0-3.78-0.271-5.94-0.811c-1.89-0.54-3.78-1.35-5.4-2.7c-1.62-1.08-2.97-2.7-4.05-4.59
				s-1.62-4.32-1.62-7.021c0-3.78,1.08-6.75,2.97-9.18c1.891-2.16,4.591-3.78,7.831-5.131c3.239-1.08,7.02-1.89,11.07-2.16
				c4.319-0.27,8.64-0.54,12.96-0.54v-0.81H458.746z M456.586,207.997c-2.971,0-5.94,0-8.91,0.271
				c-2.971,0.27-5.671,0.81-8.101,1.35c-2.431,0.54-4.32,1.891-5.94,3.24s-2.43,3.24-2.43,5.67c0,1.891,0.27,3.24,1.08,4.32
				c0.54,1.08,1.62,2.16,2.699,2.971c1.08,0.81,2.431,1.35,3.78,1.619c1.351,0.271,2.7,0.54,4.32,0.54c2.431,0,4.86-0.54,6.75-1.35
				c1.891-0.81,3.511-2.16,4.86-3.51c1.351-1.62,2.431-3.24,2.971-5.131c0.81-1.89,1.08-4.05,1.08-6.21v-3.78H456.586z"/>
		</g>
		<g>
			<path fill="#50B961" d="M491.417,232.838h-7.29v-80.192h7.29V232.838z"/>
		</g>
		<g>
			<path fill="#50B961" d="M559.999,207.997c0,3.78-0.54,7.29-1.89,10.261c-1.351,3.24-3.24,5.94-5.4,8.37
				c-2.43,2.43-5.13,4.05-8.37,5.4c-3.24,1.35-6.75,1.89-10.801,1.89c-3.78,0-7.29-0.54-10.53-1.89c-3.24-1.351-5.94-3.24-8.37-5.4
				c-2.43-2.43-4.05-5.13-5.4-8.37c-1.35-3.24-1.89-6.75-1.89-10.261c0-3.51,0.54-7.29,1.89-10.26c1.351-3.24,3.24-5.94,5.4-8.371
				c2.43-2.43,5.13-4.05,8.37-5.399c3.24-1.351,6.75-1.891,10.53-1.891s7.561,0.54,10.801,1.891c3.24,1.35,5.94,3.239,8.37,5.399
				c2.43,2.431,4.05,5.131,5.4,8.371C559.19,200.976,559.999,204.217,559.999,207.997z M552.44,207.997c0-2.7-0.54-5.4-1.351-7.83
				c-0.81-2.43-2.16-4.59-3.78-6.48c-1.62-1.89-3.51-3.24-5.939-4.32c-2.431-1.08-4.86-1.62-7.831-1.62
				c-2.97,0-5.399,0.54-7.83,1.62c-2.43,1.08-4.32,2.431-5.94,4.32c-1.62,1.891-2.97,4.051-3.779,6.48
				c-0.811,2.43-1.351,5.13-1.351,7.83s0.54,5.4,1.351,7.83c0.81,2.431,2.159,4.591,3.779,6.48c1.62,1.891,3.511,3.24,5.94,4.32
				c2.431,1.08,4.86,1.62,7.83,1.62c2.971,0,5.4-0.54,7.831-1.62c2.43-1.08,4.319-2.43,5.939-4.32c1.62-1.89,2.971-4.05,3.78-6.48
				C551.899,213.397,552.44,210.968,552.44,207.997z"/>
		</g>
		<g>
			<path fill="#50B961" d="M578.09,242.828c1.891,2.431,4.59,4.591,8.101,6.48c3.51,1.891,7.021,2.7,10.8,2.7
				c3.511,0,6.48-0.54,8.91-1.62c2.431-1.08,4.591-2.43,5.94-4.32c1.62-1.89,2.7-3.78,3.24-6.21c0.811-2.43,1.08-4.86,1.08-7.561
				v-9.45h-0.27c-1.891,3.24-4.591,5.4-8.101,7.29c-3.51,1.62-7.021,2.431-10.53,2.431c-3.78,0-7.29-0.54-10.53-1.891
				c-3.24-1.35-5.94-2.97-8.101-5.13s-4.05-4.86-5.13-8.101c-1.351-3.24-1.891-6.479-1.891-9.99c0-3.51,0.54-6.75,1.891-9.99
				c1.35-3.24,2.97-5.94,5.13-8.101c2.16-2.43,4.86-4.05,8.101-5.399c3.24-1.351,6.75-1.891,10.53-1.891
				c3.51,0,7.021,0.811,10.53,2.431s6.21,4.05,8.101,7.29h0.27v-8.641h7.29v49.142c0,2.7-0.27,5.671-1.08,8.641
				c-0.81,2.97-2.16,5.94-4.05,8.37c-1.89,2.431-4.86,4.59-8.101,6.48c-3.51,1.62-7.83,2.43-13.5,2.43c-4.59,0-8.91-0.81-13.23-2.7
				c-4.051-1.89-7.83-4.319-10.801-7.29L578.09,242.828z M579.44,207.457c0,2.7,0.541,5.131,1.351,7.29
				c0.81,2.431,2.16,4.32,3.78,6.211c1.62,1.89,3.51,3.24,5.94,4.32c2.43,1.079,4.859,1.619,7.83,1.619c2.7,0,5.4-0.54,7.56-1.35
				c2.431-0.81,4.32-2.16,5.94-4.05c1.62-1.62,2.971-3.78,4.051-6.211c1.079-2.43,1.35-5.13,1.35-7.83s-0.54-5.13-1.35-7.29
				c-0.811-2.16-2.16-4.32-4.051-6.21c-1.62-1.891-3.78-3.24-5.94-4.32c-2.43-1.08-4.859-1.62-7.56-1.62
				c-2.971,0-5.671,0.54-7.83,1.62c-2.431,1.08-4.32,2.43-5.94,4.32c-1.62,1.89-2.7,3.78-3.78,6.21
				C579.981,202.327,579.44,204.757,579.44,207.457z"/>
		</g>
	</g>
	<g>
		
			<rect x="152.563" y="124.865" transform="matrix(-0.0042 1 -1 -0.0042 362.584 54.1733)" fill="#D6D6D6" width="3.511" height="165.517"/>
	</g>
	<g>
		
			<rect x="748.481" y="127.4" transform="matrix(-0.0042 1 -1 -0.0042 963.5236 -539.1937)" fill="#D6D6D6" width="3.511" height="165.517"/>
	</g>
</g>
</svg>
